<?xml version="1.0" encoding="iso-8859-1"?>
<!-- Generator: Adobe Illustrator 19.0.1, SVG Export Plug-In . SVG Version: 6.00 Build 0)  -->
<svg version="1.1" baseProfile="tiny" xmlns="http://www.w3.org/2000/svg" xmlns:xlink="http://www.w3.org/1999/xlink" x="0px"
	 y="0px" viewBox="0 0 700 195" xml:space="preserve">
<g id="Isometric_Grid">
</g>
<g id="Background" display="none">
	<rect id="XMLID_615_" x="-47.75" y="-58" display="inline" fill="#6090FC" width="800.5" height="300"/>
</g>
<g id="Shadows">
	<polygon id="XMLID_514_" fill="#FCFDF6" points="19.25,180.75 0.033,169.441 0,42.75 72.25,1.25 91.5,12.75 18.75,56 	"/>
	<polygon id="XMLID_513_" fill="#FCFDF6" points="64.5,169.75 64.5,30.197 82.625,23.5 82.214,180 	"/>
	<polygon id="XMLID_512_" fill="#FCFDF6" points="109.312,170.405 109.25,4.164 118.25,3.667 137.25,15 127.201,14.977 127.214,181 
			"/>
	<polygon id="XMLID_511_" fill="#FCFDF6" points="201.417,148.25 163.312,181.938 146.375,171.75 146.25,25.341 186.77,2.833 
		201.583,10.917 163.25,33.833 164.25,160.75 192.417,143.75 	"/>
	<polygon id="XMLID_510_" fill="#FCFDF6" points="217.355,170.035 217.25,3.697 227.25,4 244.875,14.5 235.201,13.977 
		235.097,97.176 258.369,83.739 271.25,64.875 271.128,3.5 280.375,3.625 299.125,14.5 289.75,14.25 289.553,75.036 276.541,92.667 
		289.516,99.587 289.875,180.226 271.249,168.667 271.196,96.487 235.25,118.25 235.008,180.351 	"/>
	<polygon id="XMLID_509_" fill="#FCFDF6" points="513.25,149.375 475.063,182.333 457.386,172.053 457.25,26.341 498.77,2.833 
		513.75,11 475.201,33.977 475.25,89.625 498.25,75.25 513.75,84 475.375,109.5 475,148.75 494.375,138.25 	"/>
	<polygon id="XMLID_508_" fill="#FCFDF6" points="368.063,181.333 350.386,171.053 350.25,25.341 391.77,2.833 407,11 
		368.201,33.977 368.143,98.5 390.25,84.75 406.5,94 368.123,119.25 	"/>
	<polygon id="XMLID_507_" fill="#FCFDF6" points="530.08,171.405 530.134,5.164 538.25,5.125 557.125,15.25 547.375,14.875 
		547.5,155.25 570.5,140.75 585.25,149.25 547.75,182 	"/>
	<polygon id="XMLID_506_" fill="#FCFDF6" points="629.29,168.167 609.75,182 592.08,171.405 592.134,13.375 616.75,0.5 633,9.5 
		609.912,22.977 610.48,157.5 629.25,121.25 629.75,11.898 646.25,22.333 646.243,136.727 	"/>
	<polygon id="XMLID_505_" fill="#FCFDF6" points="421.312,170.405 421.25,4.164 430.25,3.667 449.25,15 439.201,14.977 439.214,181 
			"/>
</g>
<g id="Letters">
	<polyline id="XMLID_643_" fill="none" stroke="#1D1A14" stroke-width="10" stroke-miterlimit="10" points="24.25,181.366 
		24.184,56.556 87.201,20.977 87.25,181 	"/>
	<polyline id="XMLID_642_" fill="none" stroke="#1D1A14" stroke-width="10" stroke-miterlimit="10" points="204.25,14.995 
		168.25,36.688 168.231,173.333 204.127,152.397 	"/>
	
		<line id="XMLID_641_" fill="none" stroke="#1D1A14" stroke-width="10" stroke-miterlimit="10" x1="132.188" y1="14.977" x2="132.128" y2="181.366"/>
	<polyline id="XMLID_650_" fill="none" stroke="#1D1A14" stroke-width="10" stroke-miterlimit="10" points="516.25,15 
		480.119,36.655 480.084,174.305 515.973,153.422 	"/>
	<polyline id="XMLID_649_" fill="none" stroke="#1D1A14" stroke-width="10" stroke-miterlimit="10" points="409.128,15 373.25,37 
		373.128,181.296 	"/>
	<polyline id="XMLID_638_" fill="none" stroke="#1D1A14" stroke-width="10" stroke-miterlimit="10" points="240.25,15 
		240.337,118.245 240.249,181.351 	"/>
	
		<line id="XMLID_637_" fill="none" stroke="#1D1A14" stroke-width="10" stroke-miterlimit="10" x1="281.541" y1="94.977" x2="240.378" y2="119.25"/>
	<polyline id="XMLID_636_" fill="none" stroke="#1D1A14" stroke-width="10" stroke-miterlimit="10" points="294.5,15 294.5,75.75 
		281.25,95 294.5,100.688 294.5,181 	"/>
	<path id="XMLID_648_" fill="none" stroke="#1D1A14" stroke-width="10" stroke-miterlimit="10" d="M373.75,182"/>
	
		<line id="XMLID_647_" fill="none" stroke="#1D1A14" stroke-width="10" stroke-miterlimit="10" x1="409.128" y1="98" x2="373.25" y2="119.25"/>
	
		<line id="XMLID_646_" fill="none" stroke="#1D1A14" stroke-width="10" stroke-miterlimit="10" x1="444.128" y1="15.019" x2="444.25" y2="181.226"/>
	
		<line id="XMLID_645_" fill="none" stroke="#1D1A14" stroke-width="10" stroke-miterlimit="10" x1="516.5" y1="88.274" x2="480.244" y2="109.021"/>
	<polyline id="XMLID_644_" fill="none" stroke="#1D1A14" stroke-width="10" stroke-miterlimit="10" points="552.337,14.898 
		552.272,174.197 587.896,153.535 	"/>
	<polygon id="XMLID_629_" fill="none" stroke="#1D1A14" stroke-width="10" stroke-miterlimit="10" points="650.25,132.5 
		650.455,25.6 632.25,15.333 614.125,25.413 614.25,174 633.477,163.114 	"/>
	<g id="XMLID_628_">
	</g>
	<g id="XMLID_630_">
	</g>
	<g id="XMLID_631_">
	</g>
	<g id="XMLID_632_">
	</g>
	<g id="XMLID_633_">
	</g>
	<g id="XMLID_634_">
	</g>
	<g id="XMLID_635_">
	</g>
	<g id="XMLID_639_">
	</g>
	<g id="XMLID_640_">
	</g>
	<g id="XMLID_651_">
	</g>
	<g id="XMLID_652_">
	</g>
	<g id="XMLID_653_">
	</g>
	<g id="XMLID_654_">
	</g>
	<g id="XMLID_655_">
	</g>
	<g id="XMLID_656_">
	</g>
</g>
</svg>
