<?xml version="1.0" encoding="iso-8859-1"?>
<!-- Generator: Adobe Illustrator 19.0.1, SVG Export Plug-In . SVG Version: 6.00 Build 0)  -->
<svg version="1.1" baseProfile="tiny" xmlns="http://www.w3.org/2000/svg" xmlns:xlink="http://www.w3.org/1999/xlink" x="0px"
	 y="0px" viewBox="0 0 320 80" xml:space="preserve">
<g id="Isometric_Grid">
</g>
<g id="Original">
</g>
<g id="Twitter">
	<rect id="XMLID_546_" y="0" display="none" width="80" height="80"/>
	<path id="XMLID_551_" fill="#FFFFFF" d="M12.188,67.776c0,0,27.905-7.238,29.064-43.674c0.327-10.274,6.246-13.244,13.951-13.244
		s13.951,5.93,13.951,13.244C70.199,57.858,47.1,68.397,12.188,67.776z"/>
	<polygon id="XMLID_547_" fill="#FFFFFF" points="59.688,22.84 75.133,22.683 71.583,26.547 74.946,26.67 65.791,44.638 	"/>
	<path id="XMLID_552_" fill="#FFFFFF" d="M61.681,27.191H8.867l11.873,9h-5.732l9.416,7h-4.504l8.393,7.118
		c12.083,9.726,21.255,9.385,28.249,1.17L61.681,27.191z"/>
</g>
<g id="Mail">
	<rect id="XMLID_548_" x="80.25" y="0" display="none" width="80" height="80"/>
	<g id="XMLID_347_">

			<rect id="XMLID_570_" x="83.833" y="12.368" fill="none" stroke="#FFFFFF" stroke-width="3" stroke-miterlimit="10" width="73.835" height="54.145"/>
		<polygon id="XMLID_572_" fill="none" stroke="#FFFFFF" stroke-width="3" stroke-miterlimit="10" points="83.803,27.422
			83.833,13.691 157.667,13.691 157.697,27.178 119.611,53.1 		"/>
	</g>
</g>
<g id="LinkedIn">
	<rect id="XMLID_549_" x="160.5" y="0" display="none" width="80" height="80"/>
	<g id="XMLID_265_">
		<rect id="XMLID_356_" x="167.25" y="7.941" fill="none" width="79" height="73.5"/>
		<path id="XMLID_350_" fill="#FFFFFF" d="M186.328,17.752c0,2.289-0.831,4.264-2.493,5.926c-1.71,1.638-3.698,2.457-5.962,2.457
			c-2.337,0-4.336-0.831-5.998-2.493c-1.638-1.71-2.457-3.709-2.457-5.998c0-2.336,0.819-4.324,2.457-5.962
			c1.71-1.638,3.697-2.457,5.962-2.457c2.385,0,4.396,0.831,6.034,2.493C185.509,13.356,186.328,15.367,186.328,17.752z
			 M185.1,68.916h-14.525v-39.06H185.1V68.916z"/>
		<path id="XMLID_354_" fill="#FFFFFF" d="M231.658,68.916h-14.525V48.248c0-1.782-0.223-3.023-0.668-3.722
			c-0.445-0.698-1.221-1.048-2.327-1.048c-2.58,0-3.87,1.915-3.87,5.745v19.692h-14.525v-39.06h14.525
			c-0.024,0.964-0.048,1.855-0.072,2.674c-0.024,0.819-0.061,1.578-0.108,2.276l-0.145,2.493c2.498-4.962,6.172-7.443,11.021-7.443
			c3.371,0,5.989,1.145,7.856,3.432c1.893,2.288,2.839,5.472,2.839,9.553V68.916z"/>
	</g>
</g>
<g id="Github">
	<rect id="XMLID_550_" x="240.75" y="0" display="none" width="80" height="80"/>
	<g id="XMLID_348_">
		<path id="XMLID_353_" fill="#FFFFFF" d="M280.5,9.941c-16.292,0-29.5,13.208-29.5,29.5c0,12.812,8.169,23.711,19.581,27.786
			l0.366-3.066l-14.338-16.152l15.068,9.881l1.099-5.735c-7.674-2.335-13.088-7.955-13.088-14.526c0-5.184,3.38-9.766,8.568-12.623
			l-0.226-6.731l6.328,4.395c1.998-0.471,4.123-0.729,6.33-0.729c2.213,0,4.343,0.259,6.346,0.733l6.212-4.131l-0.183,6.431
			c5.221,2.854,8.626,7.452,8.626,12.655c0,6.715-5.658,12.428-13.599,14.666l1.517,15.207C301.441,63.664,310,52.555,310,39.441
			C310,23.149,296.792,9.941,280.5,9.941z"/>
	</g>
	<g id="XMLID_2_">
	</g>
	<g id="XMLID_349_">
	</g>
	<g id="XMLID_357_">
	</g>
	<g id="XMLID_358_">
	</g>
	<g id="XMLID_359_">
	</g>
	<g id="XMLID_400_">
	</g>
	<g id="XMLID_404_">
	</g>
	<g id="XMLID_405_">
	</g>
	<g id="XMLID_406_">
	</g>
	<g id="XMLID_424_">
	</g>
	<g id="XMLID_425_">
	</g>
	<g id="XMLID_426_">
	</g>
	<g id="XMLID_427_">
	</g>
	<g id="XMLID_428_">
	</g>
	<g id="XMLID_429_">
	</g>
</g>
</svg>
